<svg width="90" height="17" viewBox="0 0 90 17" fill="none" xmlns="http://www.w3.org/2000/svg">
<path d="M7.02148 11.6348V1.78125H9.94141V11.6348C9.94141 12.5853 9.73307 13.4023 9.31641 14.0859C8.89974 14.763 8.33008 15.2839 7.60742 15.6484C6.89128 16.013 6.08398 16.1953 5.18555 16.1953C4.25456 16.1953 3.43099 16.0391 2.71484 15.7266C1.9987 15.4141 1.43555 14.9355 1.02539 14.291C0.615234 13.64 0.410156 12.8164 0.410156 11.8203H3.34961C3.34961 12.3411 3.42122 12.7546 3.56445 13.0605C3.71419 13.3665 3.92578 13.5846 4.19922 13.7148C4.47266 13.8451 4.80143 13.9102 5.18555 13.9102C5.55664 13.9102 5.87891 13.8223 6.15234 13.6465C6.42578 13.4707 6.63737 13.2135 6.78711 12.875C6.94336 12.5365 7.02148 12.123 7.02148 11.6348ZM11.8164 10.8242V10.6191C11.8164 9.8444 11.9271 9.13151 12.1484 8.48047C12.3698 7.82292 12.6921 7.25326 13.1152 6.77148C13.5384 6.28971 14.0592 5.91536 14.6777 5.64844C15.2962 5.375 16.0059 5.23828 16.8066 5.23828C17.6074 5.23828 18.3203 5.375 18.9453 5.64844C19.5703 5.91536 20.0944 6.28971 20.5176 6.77148C20.9473 7.25326 21.2728 7.82292 21.4941 8.48047C21.7155 9.13151 21.8262 9.8444 21.8262 10.6191V10.8242C21.8262 11.5924 21.7155 12.3053 21.4941 12.9629C21.2728 13.6139 20.9473 14.1836 20.5176 14.6719C20.0944 15.1536 19.5736 15.528 18.9551 15.7949C18.3366 16.0618 17.627 16.1953 16.8262 16.1953C16.0254 16.1953 15.3125 16.0618 14.6875 15.7949C14.069 15.528 13.5449 15.1536 13.1152 14.6719C12.6921 14.1836 12.3698 13.6139 12.1484 12.9629C11.9271 12.3053 11.8164 11.5924 11.8164 10.8242ZM14.6289 10.6191V10.8242C14.6289 11.2669 14.668 11.6803 14.7461 12.0645C14.8242 12.4486 14.9479 12.7871 15.1172 13.0801C15.293 13.3665 15.5208 13.5911 15.8008 13.7539C16.0807 13.9167 16.4225 13.998 16.8262 13.998C17.2168 13.998 17.5521 13.9167 17.832 13.7539C18.112 13.5911 18.3366 13.3665 18.5059 13.0801C18.6751 12.7871 18.7988 12.4486 18.877 12.0645C18.9616 11.6803 19.0039 11.2669 19.0039 10.8242V10.6191C19.0039 10.1895 18.9616 9.78581 18.877 9.4082C18.7988 9.02409 18.6719 8.68555 18.4961 8.39258C18.3268 8.0931 18.1022 7.85872 17.8223 7.68945C17.5423 7.52018 17.2038 7.43555 16.8066 7.43555C16.4095 7.43555 16.071 7.52018 15.791 7.68945C15.5176 7.85872 15.293 8.0931 15.1172 8.39258C14.9479 8.68555 14.8242 9.02409 14.7461 9.4082C14.668 9.78581 14.6289 10.1895 14.6289 10.6191ZM29.2676 13.0801C29.2676 12.8783 29.209 12.696 29.0918 12.5332C28.9746 12.3704 28.7565 12.2207 28.4375 12.084C28.125 11.9408 27.6725 11.8105 27.0801 11.6934C26.5462 11.5762 26.0482 11.4297 25.5859 11.2539C25.1302 11.0716 24.7331 10.8535 24.3945 10.5996C24.0625 10.3457 23.8021 10.0462 23.6133 9.70117C23.4245 9.34961 23.3301 8.94922 23.3301 8.5C23.3301 8.05729 23.4245 7.64062 23.6133 7.25C23.8086 6.85938 24.0853 6.51432 24.4434 6.21484C24.8079 5.90885 25.2507 5.67122 25.7715 5.50195C26.2988 5.32617 26.8913 5.23828 27.5488 5.23828C28.4668 5.23828 29.2546 5.38477 29.9121 5.67773C30.5762 5.9707 31.084 6.37435 31.4355 6.88867C31.7936 7.39648 31.9727 7.97591 31.9727 8.62695H29.1602C29.1602 8.35352 29.1016 8.10938 28.9844 7.89453C28.8737 7.67318 28.6979 7.50065 28.457 7.37695C28.2227 7.24674 27.9167 7.18164 27.5391 7.18164C27.2266 7.18164 26.9564 7.23698 26.7285 7.34766C26.5007 7.45182 26.3249 7.59505 26.2012 7.77734C26.084 7.95312 26.0254 8.14844 26.0254 8.36328C26.0254 8.52604 26.0579 8.67253 26.123 8.80273C26.1947 8.92643 26.3086 9.04036 26.4648 9.14453C26.6211 9.2487 26.8229 9.34635 27.0703 9.4375C27.3242 9.52214 27.6367 9.60026 28.0078 9.67188C28.7695 9.82812 29.4499 10.0332 30.0488 10.2871C30.6478 10.5345 31.123 10.873 31.4746 11.3027C31.8262 11.7259 32.002 12.2826 32.002 12.9727C32.002 13.4414 31.8978 13.8711 31.6895 14.2617C31.4811 14.6523 31.1816 14.9941 30.791 15.2871C30.4004 15.5736 29.9316 15.7982 29.3848 15.9609C28.8444 16.1172 28.2357 16.1953 27.5586 16.1953C26.5755 16.1953 25.7422 16.0195 25.0586 15.668C24.3815 15.3164 23.8672 14.8704 23.5156 14.3301C23.1706 13.7832 22.998 13.2233 22.998 12.6504H25.6641C25.6771 13.0345 25.7747 13.3438 25.957 13.5781C26.1458 13.8125 26.3835 13.9818 26.6699 14.0859C26.9629 14.1901 27.2786 14.2422 27.6172 14.2422C27.9818 14.2422 28.2845 14.1934 28.5254 14.0957C28.7663 13.9915 28.9486 13.8548 29.0723 13.6855C29.2025 13.5098 29.2676 13.3079 29.2676 13.0801ZM38.6914 16.1953C37.8711 16.1953 37.1354 16.0651 36.4844 15.8047C35.8333 15.5378 35.2799 15.1699 34.8242 14.7012C34.375 14.2324 34.0299 13.6888 33.7891 13.0703C33.5482 12.4453 33.4277 11.7812 33.4277 11.0781V10.6875C33.4277 9.88672 33.5417 9.1543 33.7695 8.49023C33.9974 7.82617 34.3229 7.25 34.7461 6.76172C35.1758 6.27344 35.6966 5.89909 36.3086 5.63867C36.9206 5.37174 37.6107 5.23828 38.3789 5.23828C39.1276 5.23828 39.7917 5.36198 40.3711 5.60938C40.9505 5.85677 41.4355 6.20833 41.8262 6.66406C42.2233 7.11979 42.5228 7.66667 42.7246 8.30469C42.9264 8.9362 43.0273 9.63932 43.0273 10.4141V11.5859H34.6289V9.71094H40.2637V9.49609C40.2637 9.10547 40.1921 8.75716 40.0488 8.45117C39.9121 8.13867 39.7038 7.89128 39.4238 7.70898C39.1439 7.52669 38.7858 7.43555 38.3496 7.43555C37.9785 7.43555 37.6595 7.51693 37.3926 7.67969C37.1257 7.84245 36.9076 8.07031 36.7383 8.36328C36.5755 8.65625 36.4518 9.0013 36.3672 9.39844C36.2891 9.78906 36.25 10.2188 36.25 10.6875V11.0781C36.25 11.5013 36.3086 11.8919 36.4258 12.25C36.5495 12.6081 36.722 12.9173 36.9434 13.1777C37.1712 13.4382 37.4447 13.64 37.7637 13.7832C38.0892 13.9264 38.457 13.998 38.8672 13.998C39.375 13.998 39.847 13.9004 40.2832 13.7051C40.7259 13.5033 41.1068 13.2005 41.4258 12.7969L42.793 14.2812C42.5716 14.6003 42.2689 14.9062 41.8848 15.1992C41.5072 15.4922 41.0514 15.7331 40.5176 15.9219C39.9837 16.1042 39.375 16.1953 38.6914 16.1953ZM36.709 3.99805L38.623 0.990234H41.6797L38.9941 3.99805H36.709ZM61.3574 1.78125V16H58.4277L52.7148 6.46875V16H49.7852V1.78125H52.7148L58.4375 11.3223V1.78125H61.3574ZM66.6992 5.43359V16H63.877V5.43359H66.6992ZM63.7012 2.67969C63.7012 2.26953 63.8444 1.93099 64.1309 1.66406C64.4173 1.39714 64.8014 1.26367 65.2832 1.26367C65.7585 1.26367 66.1393 1.39714 66.4258 1.66406C66.7188 1.93099 66.8652 2.26953 66.8652 2.67969C66.8652 3.08984 66.7188 3.42839 66.4258 3.69531C66.1393 3.96224 65.7585 4.0957 65.2832 4.0957C64.8014 4.0957 64.4173 3.96224 64.1309 3.69531C63.8444 3.42839 63.7012 3.08984 63.7012 2.67969ZM71.7773 7.68945V16H68.9648V5.43359H71.6016L71.7773 7.68945ZM71.3672 10.3457H70.6055C70.6055 9.56445 70.7064 8.86133 70.9082 8.23633C71.11 7.60482 71.3932 7.06771 71.7578 6.625C72.1224 6.17578 72.5553 5.83398 73.0566 5.59961C73.5645 5.35872 74.1309 5.23828 74.7559 5.23828C75.2507 5.23828 75.7031 5.3099 76.1133 5.45312C76.5234 5.59635 76.875 5.82422 77.168 6.13672C77.4674 6.44922 77.6953 6.86263 77.8516 7.37695C78.0143 7.89128 78.0957 8.51953 78.0957 9.26172V16H75.2637V9.25195C75.2637 8.7832 75.1986 8.41862 75.0684 8.1582C74.9382 7.89779 74.7461 7.71549 74.4922 7.61133C74.2448 7.50065 73.9388 7.44531 73.5742 7.44531C73.1966 7.44531 72.8678 7.52018 72.5879 7.66992C72.3145 7.81966 72.0866 8.02799 71.9043 8.29492C71.7285 8.55534 71.5951 8.86133 71.5039 9.21289C71.4128 9.56445 71.3672 9.94206 71.3672 10.3457ZM75.6055 1.04883L77.2266 1.15625C77.2266 1.63151 77.1322 2.06445 76.9434 2.45508C76.7546 2.83919 76.4941 3.14844 76.1621 3.38281C75.8301 3.61068 75.4492 3.72461 75.0195 3.72461C74.707 3.72461 74.4368 3.68229 74.209 3.59766C73.9876 3.51302 73.7826 3.41536 73.5938 3.30469C73.4049 3.1875 73.2096 3.08659 73.0078 3.00195C72.8125 2.91732 72.5879 2.875 72.334 2.875C72.1061 2.875 71.9108 2.95638 71.748 3.11914C71.5918 3.2819 71.5137 3.51628 71.5137 3.82227L69.8828 3.73438C69.8828 3.26562 69.9772 2.83594 70.166 2.44531C70.3548 2.05469 70.6152 1.74219 70.9473 1.50781C71.2793 1.26693 71.6569 1.14648 72.0801 1.14648C72.347 1.14648 72.5911 1.19206 72.8125 1.2832C73.0339 1.36784 73.2454 1.46549 73.4473 1.57617C73.6556 1.68685 73.8672 1.78451 74.082 1.86914C74.2969 1.95378 74.5247 1.99609 74.7656 1.99609C74.9935 1.99609 75.1888 1.91471 75.3516 1.75195C75.5208 1.58268 75.6055 1.34831 75.6055 1.04883ZM79.7852 10.8242V10.6191C79.7852 9.8444 79.8958 9.13151 80.1172 8.48047C80.3385 7.82292 80.6608 7.25326 81.084 6.77148C81.5072 6.28971 82.028 5.91536 82.6465 5.64844C83.265 5.375 83.9746 5.23828 84.7754 5.23828C85.5762 5.23828 86.2891 5.375 86.9141 5.64844C87.5391 5.91536 88.0632 6.28971 88.4863 6.77148C88.916 7.25326 89.2415 7.82292 89.4629 8.48047C89.6842 9.13151 89.7949 9.8444 89.7949 10.6191V10.8242C89.7949 11.5924 89.6842 12.3053 89.4629 12.9629C89.2415 13.6139 88.916 14.1836 88.4863 14.6719C88.0632 15.1536 87.5423 15.528 86.9238 15.7949C86.3053 16.0618 85.5957 16.1953 84.7949 16.1953C83.9941 16.1953 83.2812 16.0618 82.6562 15.7949C82.0378 15.528 81.5137 15.1536 81.084 14.6719C80.6608 14.1836 80.3385 13.6139 80.1172 12.9629C79.8958 12.3053 79.7852 11.5924 79.7852 10.8242ZM82.5977 10.6191V10.8242C82.5977 11.2669 82.6367 11.6803 82.7148 12.0645C82.793 12.4486 82.9167 12.7871 83.0859 13.0801C83.2617 13.3665 83.4896 13.5911 83.7695 13.7539C84.0495 13.9167 84.3913 13.998 84.7949 13.998C85.1855 13.998 85.5208 13.9167 85.8008 13.7539C86.0807 13.5911 86.3053 13.3665 86.4746 13.0801C86.6439 12.7871 86.7676 12.4486 86.8457 12.0645C86.9303 11.6803 86.9727 11.2669 86.9727 10.8242V10.6191C86.9727 10.1895 86.9303 9.78581 86.8457 9.4082C86.7676 9.02409 86.6406 8.68555 86.4648 8.39258C86.2956 8.0931 86.071 7.85872 85.791 7.68945C85.5111 7.52018 85.1725 7.43555 84.7754 7.43555C84.3783 7.43555 84.0397 7.52018 83.7598 7.68945C83.4863 7.85872 83.2617 8.0931 83.0859 8.39258C82.9167 8.68555 82.793 9.02409 82.7148 9.4082C82.6367 9.78581 82.5977 10.1895 82.5977 10.6191Z" fill="white"/>
</svg>
